{
  "accessors": [
    {
      "bufferView": 2,
      "componentType": 5126,
      "count": 4,
      "max": [
        167.02890014648438,
        167.02890014648438,
        0
      ],
      "min": [
        -167.02890014648438,
        -167.02890014648438,
        0
      ],
      "type": "VEC3"
    },
    {
      "bufferView": 2,
      "byteOffset": 48,
      "componentType": 5126,
      "count": 4,
      "max": [
        0,
        0,
        1
      ],
      "min": [
        0,
        0,
        1
      ],
      "type": "VEC3"
    },
    {
      "bufferView": 3,
      "componentType": 5126,
      "count": 4,
      "max": [
        1,
        2.3841872121010965e-07,
        0,
        1
      ],
      "min": [
        1,
        1.7881399116959074e-07,
        0,
        1
      ],
      "type": "VEC4"
    },
    {
      "bufferView": 1,
      "componentType": 5126,
      "count": 4,
      "max": [
        1,
        1
      ],
      "min": [
        2.98022992950564e-08,
        2.98022992950564e-08
      ],
      "type": "VEC2"
    },
    {
      "bufferView": 0,
      "componentType": 5125,
      "count": 6,
      "max": [
        3
      ],
      "min": [
        0
      ],
      "type": "SCALAR"
    },
    {
      "bufferView": 2,
      "byteOffset": 96,
      "componentType": 5126,
      "count": 14434,
      "max": [
        16.917980194091797,
        28.530370712280273,
        4.8756008148193359
      ],
      "min": [
        -17.313999176025391,
        -28.771200180053711,
        -1.3020000457763672
      ],
      "type": "VEC3"
    },
    {
      "bufferView": 2,
      "byteOffset": 173304,
      "componentType": 5126,
      "count": 14434,
      "max": [
        1,
        1,
        1
      ],
      "min": [
        -1,
        -1,
        -1
      ],
      "type": "VEC3"
    },
    {
      "bufferView": 3,
      "byteOffset": 64,
      "componentType": 5126,
      "count": 14434,
      "max": [
        1,
        1,
        1,
        1
      ],
      "min": [
        -1,
        -1,
        -1,
        -1
      ],
      "type": "VEC4"
    },
    {
      "bufferView": 1,
      "byteOffset": 32,
      "componentType": 5126,
      "count": 14434,
      "max": [
        0.54034769535064697,
        0.62877827882766724
      ],
      "min": [
        0.36346730589866638,
        0.4542090892791748
      ],
      "type": "VEC2"
    },
    {
      "bufferView": 0,
      "byteOffset": 24,
      "componentType": 5125,
      "count": 34992,
      "max": [
        14433
      ],
      "min": [
        0
      ],
      "type": "SCALAR"
    },
    {
      "bufferView": 2,
      "byteOffset": 346512,
      "componentType": 5126,
      "count": 11799,
      "max": [
        17.008970260620117,
        23.86775016784668,
        5.7355117797851562
      ],
      "min": [
        -17.404989242553711,
        -24.108579635620117,
        4.8680119514465332
      ],
      "type": "VEC3"
    },
    {
      "bufferView": 2,
      "byteOffset": 488100,
      "componentType": 5126,
      "count": 11799,
      "max": [
        1,
        1,
        1
      ],
      "min": [
        -1,
        -1,
        -1
      ],
      "type": "VEC3"
    },
    {
      "bufferView": 3,
      "byteOffset": 231008,
      "componentType": 5126,
      "count": 11799,
      "max": [
        1,
        1,
        0.99999058246612549,
        1
      ],
      "min": [
        -1,
        -1,
        -0.99999219179153442,
        -1
      ],
      "type": "VEC4"
    },
    {
      "bufferView": 1,
      "byteOffset": 115504,
      "componentType": 5126,
      "count": 11799,
      "max": [
        0.54057222604751587,
        0.63062208890914917
      ],
      "min": [
        0.4090982973575592,
        0.4542090892791748
      ],
      "type": "VEC2"
    },
    {
      "bufferView": 0,
      "byteOffset": 139992,
      "componentType": 5125,
      "count": 31872,
      "max": [
        11798
      ],
      "min": [
        0
      ],
      "type": "SCALAR"
    },
    {
      "bufferView": 2,
      "byteOffset": 629688,
      "componentType": 5126,
      "count": 480,
      "max": [
        20.006059646606445,
        29.865840911865234,
        67.274742126464844
      ],
      "min": [
        -19.934480667114258,
        -30.169570922851562,
        5.7328948974609375
      ],
      "type": "VEC3"
    },
    {
      "bufferView": 2,
      "byteOffset": 635448,
      "componentType": 5126,
      "count": 480,
      "max": [
        1,
        1,
        1
      ],
      "min": [
        -1,
        -1,
        -1
      ],
      "type": "VEC3"
    },
    {
      "bufferView": 3,
      "byteOffset": 419792,
      "componentType": 5126,
      "count": 480,
      "max": [
        1,
        0.9999997615814209,
        1,
        1
      ],
      "min": [
        -1,
        -1,
        -1,
        1
      ],
      "type": "VEC4"
    },
    {
      "bufferView": 1,
      "byteOffset": 209896,
      "componentType": 5126,
      "count": 480,
      "max": [
        0.9935309886932373,
        0.99949997663497925
      ],
      "min": [
        0.00050000002374872565,
        0.0050371061079204082
      ],
      "type": "VEC2"
    },
    {
      "bufferView": 0,
      "byteOffset": 267480,
      "componentType": 5125,
      "count": 660,
      "max": [
        479
      ],
      "min": [
        0
      ],
      "type": "SCALAR"
    },
    {
      "bufferView": 2,
      "byteOffset": 641208,
      "componentType": 5126,
      "count": 288,
      "max": [
        18.650989532470703,
        -28.32942008972168,
        66.430709838867188
      ],
      "min": [
        -18.873699188232422,
        -29.185520172119141,
        6.4870319366455078
      ],
      "type": "VEC3"
    },
    {
      "bufferView": 2,
      "byteOffset": 644664,
      "componentType": 5126,
      "count": 288,
      "max": [
        1,
        1,
        1
      ],
      "min": [
        -1,
        -1,
        -1
      ],
      "type": "VEC3"
    },
    {
      "bufferView": 3,
      "byteOffset": 427472,
      "componentType": 5126,
      "count": 288,
      "max": [
        1,
        1,
        0.0078179435804486275,
        1
      ],
      "min": [
        -0.70749777555465698,
        -1,
        -0.013429012149572372,
        1
      ],
      "type": "VEC4"
    },
    {
      "bufferView": 1,
      "byteOffset": 213736,
      "componentType": 5126,
      "count": 288,
      "max": [
        0.35563310980796814,
        0.71716111898422241
      ],
      "min": [
        0.0050370912067592144,
        0.00050000002374872565
      ],
      "type": "VEC2"
    },
    {
      "bufferView": 0,
      "byteOffset": 270120,
      "componentType": 5125,
      "count": 396,
      "max": [
        287
      ],
      "min": [
        0
      ],
      "type": "SCALAR"
    },
    {
      "bufferView": 2,
      "byteOffset": 648120,
      "componentType": 5126,
      "count": 188,
      "max": [
        18.910860061645508,
        29.021709442138672,
        66.52484130859375
      ],
      "min": [
        -18.955650329589844,
        -28.612590789794922,
        6.7208747863769531
      ],
      "type": "VEC3"
    },
    {
      "bufferView": 2,
      "byteOffset": 650376,
      "componentType": 5126,
      "count": 188,
      "max": [
        1,
        1,
        1
      ],
      "min": [
        -1,
        -1,
        -0.96286243200302124
      ],
      "type": "VEC3"
    },
    {
      "bufferView": 3,
      "byteOffset": 432080,
      "componentType": 5126,
      "count": 188,
      "max": [
        1,
        0.35304325819015503,
        0.99961662292480469,
        1
      ],
      "min": [
        -0.99999785423278809,
        -0.1931983083486557,
        -0.99969637393951416,
        1
      ],
      "type": "VEC4"
    },
    {
      "bufferView": 1,
      "byteOffset": 216040,
      "componentType": 5126,
      "count": 188,
      "max": [
        0.99022650718688965,
        0.70971691608428955
      ],
      "min": [
        0.17744649946689606,
        0.0050370912067592144
      ],
      "type": "VEC2"
    },
    {
      "bufferView": 0,
      "byteOffset": 271704,
      "componentType": 5125,
      "count": 300,
      "max": [
        187
      ],
      "min": [
        0
      ],
      "type": "SCALAR"
    }
  ],
  "asset": {
    "extras": {
      "author": "MADE.COM (https://sketchfab.com/made-it)",
      "license": "CC-BY-NC-4.0 (http://creativecommons.org/licenses/by-nc/4.0/)",
      "source": "https://sketchfab.com/3d-models/stretto-small-filing-cabinet-grey-68272733888e45ee89975aa77fed5339",
      "title": "Stretto Small Filing Cabinet, Grey"
    },
    "generator": "Sketchfab-6.26.0",
    "version": "2.0"
  },
  "bufferViews": [
    {
      "buffer": 0,
      "byteLength": 272904,
      "byteOffset": 0,
      "name": "floatBufferViews",
      "target": 34963
    },
    {
      "buffer": 0,
      "byteLength": 217544,
      "byteOffset": 272904,
      "byteStride": 8,
      "name": "floatBufferViews",
      "target": 34962
    },
    {
      "buffer": 0,
      "byteLength": 652632,
      "byteOffset": 490448,
      "byteStride": 12,
      "name": "floatBufferViews",
      "target": 34962
    },
    {
      "buffer": 0,
      "byteLength": 435088,
      "byteOffset": 1143080,
      "byteStride": 16,
      "name": "floatBufferViews",
      "target": 34962
    }
  ],
  "buffers": [
    {
      "byteLength": 1578168,
      "uri": "scene.bin"
    }
  ],
  "images": [
    {
      "uri": "textures/PLASTIC_baseColor.jpeg"
    },
    {
      "uri": "textures/EnvironmentAmbientLight_metallicRoughness.png"
    },
    {
      "uri": "textures/FLOOR_baseColor.png"
    }
  ],
  "materials": [
    {
      "doubleSided": true,
      "emissiveFactor": [
        0,
        0,
        0
      ],
      "name": "PLASTIC",
      "pbrMetallicRoughness": {
        "baseColorFactor": [
          1,
          1,
          1,
          1
        ],
        "baseColorTexture": {
          "index": 0,
          "texCoord": 0
        },
        "metallicFactor": 0,
        "roughnessFactor": 0.40072408536585369
      }
    },
    {
      "doubleSided": true,
      "emissiveFactor": [
        0,
        0,
        0
      ],
      "name": "STEEL",
      "pbrMetallicRoughness": {
        "baseColorFactor": [
          0.30196099999999998,
          0.30196099999999998,
          0.30196099999999998,
          1
        ],
        "metallicFactor": 0,
        "roughnessFactor": 0.41615993780000005
      }
    },
    {
      "doubleSided": true,
      "emissiveFactor": [
        0,
        0,
        0
      ],
      "name": "EnvironmentAmbientLight",
      "occlusionTexture": {
        "index": 1,
        "strength": 1,
        "texCoord": 0
      },
      "pbrMetallicRoughness": {
        "baseColorFactor": [
          1,
          1,
          1,
          1
        ],
        "baseColorTexture": {
          "index": 0,
          "texCoord": 0
        },
        "metallicFactor": 0,
        "metallicRoughnessTexture": {
          "index": 1,
          "texCoord": 0
        },
        "roughnessFactor": 0.51048018292682928
      }
    },
    {
      "doubleSided": true,
      "emissiveFactor": [
        0,
        0,
        0
      ],
      "name": "GREY",
      "occlusionTexture": {
        "index": 1,
        "strength": 1,
        "texCoord": 0
      },
      "pbrMetallicRoughness": {
        "baseColorFactor": [
          1,
          1,
          1,
          1
        ],
        "baseColorTexture": {
          "index": 0,
          "texCoord": 0
        },
        "metallicFactor": 0,
        "metallicRoughnessTexture": {
          "index": 1,
          "texCoord": 0
        },
        "roughnessFactor": 0.64470512959999993
      }
    },
    {
      "doubleSided": true,
      "emissiveFactor": [
        0,
        0,
        0
      ],
      "name": "WHITE",
      "pbrMetallicRoughness": {
        "baseColorFactor": [
          0.98823499999999997,
          0.98823499999999997,
          0.98823499999999997,
          1
        ],
        "metallicFactor": 0,
        "roughnessFactor": 0.64470512959999993
      }
    },
    {
      "alphaMode": "BLEND",
      "doubleSided": true,
      "emissiveFactor": [
        0,
        0,
        0
      ],
      "name": "FLOOR",
      "pbrMetallicRoughness": {
        "baseColorFactor": [
          0,
          0,
          0,
          1
        ],
        "baseColorTexture": {
          "index": 2,
          "texCoord": 0
        },
        "metallicFactor": 0,
        "roughnessFactor": 1
      }
    }
  ],
  "meshes": [
    {
      "name": "FLOOR",
      "primitives": [
        {
          "attributes": {
            "NORMAL": 1,
            "POSITION": 0,
            "TANGENT": 2,
            "TEXCOORD_0": 3
          },
          "indices": 4,
          "material": 5,
          "mode": 4
        }
      ]
    },
    {
      "name": "PLASTIC",
      "primitives": [
        {
          "attributes": {
            "NORMAL": 6,
            "POSITION": 5,
            "TANGENT": 7,
            "TEXCOORD_0": 8
          },
          "indices": 9,
          "material": 0,
          "mode": 4
        }
      ]
    },
    {
      "name": "STEEL",
      "primitives": [
        {
          "attributes": {
            "NORMAL": 11,
            "POSITION": 10,
            "TANGENT": 12,
            "TEXCOORD_0": 13
          },
          "indices": 14,
          "material": 1,
          "mode": 4
        }
      ]
    },
    {
      "name": "GREY_DARK",
      "primitives": [
        {
          "attributes": {
            "NORMAL": 16,
            "POSITION": 15,
            "TANGENT": 17,
            "TEXCOORD_0": 18
          },
          "indices": 19,
          "material": 2,
          "mode": 4
        }
      ]
    },
    {
      "name": "GREY",
      "primitives": [
        {
          "attributes": {
            "NORMAL": 21,
            "POSITION": 20,
            "TANGENT": 22,
            "TEXCOORD_0": 23
          },
          "indices": 24,
          "material": 3,
          "mode": 4
        }
      ]
    },
    {
      "name": "WHITE",
      "primitives": [
        {
          "attributes": {
            "NORMAL": 26,
            "POSITION": 25,
            "TANGENT": 27,
            "TEXCOORD_0": 28
          },
          "indices": 29,
          "material": 4,
          "mode": 4
        }
      ]
    }
  ],
  "nodes": [
    {
      "children": [
        1
      ],
      "name": "RootNode (gltf orientation matrix)",
      "rotation": [
        -0.70710678118654746,
        -0,
        -0,
        0.70710678118654757
      ]
    },
    {
      "children": [
        2
      ],
      "name": "RootNode (model correction matrix)"
    },
    {
      "children": [
        3,
        5,
        12
      ],
      "name": "Collada visual scene group"
    },
    {
      "children": [
        4
      ],
      "name": "Plane001"
    },
    {
      "mesh": 0,
      "name": "FLOOR"
    },
    {
      "children": [
        6
      ],
      "name": "Stretto_Small_Filing_Cabinet_Grey"
    },
    {
      "children": [
        7,
        8,
        9,
        10,
        11
      ],
      "matrix": [
        1,
        0,
        0,
        0,
        0,
        1,
        0,
        0,
        0,
        0,
        1,
        0,
        -0.03578568,
        0.1518631,
        1.302,
        1
      ],
      "name": ""
    },
    {
      "mesh": 1,
      "name": "PLASTIC"
    },
    {
      "mesh": 2,
      "name": "STEEL"
    },
    {
      "mesh": 3,
      "name": "GREY_DARK"
    },
    {
      "mesh": 4,
      "name": "GREY"
    },
    {
      "mesh": 5,
      "name": "WHITE"
    },
    {
      "children": [
        13
      ],
      "name": "EnvironmentAmbientLight"
    },
    {
      "name": "EnvironmentAmbientLight"
    }
  ],
  "samplers": [
    {
      "magFilter": 9729,
      "minFilter": 9987,
      "wrapS": 10497,
      "wrapT": 10497
    }
  ],
  "scene": 0,
  "scenes": [
    {
      "name": "OSG_Scene",
      "nodes": [
        0
      ]
    }
  ],
  "textures": [
    {
      "sampler": 0,
      "source": 0
    },
    {
      "sampler": 0,
      "source": 1
    },
    {
      "sampler": 0,
      "source": 2
    }
  ]
}

