{
  "accessors": [
    {
      "bufferView": 2,
      "componentType": 5126,
      "count": 1380,
      "max": [
        0.016635097563266754,
        0.27961248159408569,
        0.22373563051223755
      ],
      "min": [
        -0.058582261204719543,
        -0.037454500794410706,
        -0.16076306998729706
      ],
      "type": "VEC3"
    },
    {
      "bufferView": 2,
      "byteOffset": 16560,
      "componentType": 5126,
      "count": 1380,
      "max": [
        1,
        1,
        1
      ],
      "min": [
        -1,
        -1,
        -1
      ],
      "type": "VEC3"
    },
    {
      "bufferView": 3,
      "componentType": 5126,
      "count": 1380,
      "max": [
        1,
        0.99999529123306274,
        1,
        1
      ],
      "min": [
        -1,
        -1,
        -1,
        -1
      ],
      "type": "VEC4"
    },
    {
      "bufferView": 1,
      "componentType": 5126,
      "count": 1380,
      "max": [
        0.9844970703125,
        0.9937744140625
      ],
      "min": [
        0.012884686700999737,
        0.012884686700999737
      ],
      "type": "VEC2"
    },
    {
      "bufferView": 1,
      "byteOffset": 11040,
      "componentType": 5126,
      "count": 1380,
      "max": [
        0.9844970703125,
        0.9937744140625
      ],
      "min": [
        0.012884686700999737,
        0.012884686700999737
      ],
      "type": "VEC2"
    },
    {
      "bufferView": 1,
      "byteOffset": 22080,
      "componentType": 5126,
      "count": 1380,
      "max": [
        0.9844970703125,
        0.9937744140625
      ],
      "min": [
        0.012884686700999737,
        0.012884686700999737
      ],
      "type": "VEC2"
    },
    {
      "bufferView": 0,
      "componentType": 5125,
      "count": 3075,
      "max": [
        1379
      ],
      "min": [
        0
      ],
      "type": "SCALAR"
    },
    {
      "bufferView": 2,
      "byteOffset": 33120,
      "componentType": 5126,
      "count": 1380,
      "max": [
        0.016635097563266754,
        0.27961248159408569,
        0.22373563051223755
      ],
      "min": [
        -0.058582261204719543,
        -0.037454500794410706,
        -0.16076306998729706
      ],
      "type": "VEC3"
    },
    {
      "bufferView": 2,
      "byteOffset": 49680,
      "componentType": 5126,
      "count": 1380,
      "max": [
        1,
        1,
        1
      ],
      "min": [
        -1,
        -1,
        -1
      ],
      "type": "VEC3"
    },
    {
      "bufferView": 3,
      "byteOffset": 22080,
      "componentType": 5126,
      "count": 1380,
      "max": [
        1,
        0.99999529123306274,
        1,
        1
      ],
      "min": [
        -1,
        -1,
        -1,
        -1
      ],
      "type": "VEC4"
    },
    {
      "bufferView": 1,
      "byteOffset": 33120,
      "componentType": 5126,
      "count": 1380,
      "max": [
        0.9844970703125,
        0.9937744140625
      ],
      "min": [
        0.012884686700999737,
        0.012884686700999737
      ],
      "type": "VEC2"
    },
    {
      "bufferView": 1,
      "byteOffset": 44160,
      "componentType": 5126,
      "count": 1380,
      "max": [
        0.9844970703125,
        0.9937744140625
      ],
      "min": [
        0.012884686700999737,
        0.012884686700999737
      ],
      "type": "VEC2"
    },
    {
      "bufferView": 1,
      "byteOffset": 55200,
      "componentType": 5126,
      "count": 1380,
      "max": [
        0.9844970703125,
        0.9937744140625
      ],
      "min": [
        0.012884686700999737,
        0.012884686700999737
      ],
      "type": "VEC2"
    },
    {
      "bufferView": 0,
      "byteOffset": 12300,
      "componentType": 5125,
      "count": 3075,
      "max": [
        1379
      ],
      "min": [
        0
      ],
      "type": "SCALAR"
    },
    {
      "bufferView": 2,
      "byteOffset": 66240,
      "componentType": 5126,
      "count": 1376,
      "max": [
        0.016635097563266754,
        0.27961248159408569,
        0.22373563051223755
      ],
      "min": [
        -0.058582261204719543,
        -0.037454500794410706,
        -0.16076306998729706
      ],
      "type": "VEC3"
    },
    {
      "bufferView": 2,
      "byteOffset": 82752,
      "componentType": 5126,
      "count": 1376,
      "max": [
        1,
        1,
        1
      ],
      "min": [
        -1,
        -1,
        -1
      ],
      "type": "VEC3"
    },
    {
      "bufferView": 3,
      "byteOffset": 44160,
      "componentType": 5126,
      "count": 1376,
      "max": [
        1,
        0.99999529123306274,
        1,
        1
      ],
      "min": [
        -1,
        -1,
        -1,
        -1
      ],
      "type": "VEC4"
    },
    {
      "bufferView": 1,
      "byteOffset": 66240,
      "componentType": 5126,
      "count": 1376,
      "max": [
        0.9844970703125,
        0.9937744140625
      ],
      "min": [
        0.012884686700999737,
        0.012884686700999737
      ],
      "type": "VEC2"
    },
    {
      "bufferView": 1,
      "byteOffset": 77248,
      "componentType": 5126,
      "count": 1376,
      "max": [
        0.9844970703125,
        0.9937744140625
      ],
      "min": [
        0.012884686700999737,
        0.012884686700999737
      ],
      "type": "VEC2"
    },
    {
      "bufferView": 1,
      "byteOffset": 88256,
      "componentType": 5126,
      "count": 1376,
      "max": [
        0.9844970703125,
        0.9937744140625
      ],
      "min": [
        0.012884686700999737,
        0.012884686700999737
      ],
      "type": "VEC2"
    },
    {
      "bufferView": 0,
      "byteOffset": 24600,
      "componentType": 5125,
      "count": 3075,
      "max": [
        1375
      ],
      "min": [
        0
      ],
      "type": "SCALAR"
    },
    {
      "bufferView": 2,
      "byteOffset": 99264,
      "componentType": 5126,
      "count": 1380,
      "max": [
        0.016635097563266754,
        0.27961248159408569,
        0.22373563051223755
      ],
      "min": [
        -0.058582261204719543,
        -0.037454500794410706,
        -0.16076306998729706
      ],
      "type": "VEC3"
    },
    {
      "bufferView": 2,
      "byteOffset": 115824,
      "componentType": 5126,
      "count": 1380,
      "max": [
        1,
        1,
        1
      ],
      "min": [
        -1,
        -1,
        -1
      ],
      "type": "VEC3"
    },
    {
      "bufferView": 3,
      "byteOffset": 66176,
      "componentType": 5126,
      "count": 1380,
      "max": [
        1,
        0.99999529123306274,
        1,
        1
      ],
      "min": [
        -1,
        -1,
        -1,
        -1
      ],
      "type": "VEC4"
    },
    {
      "bufferView": 1,
      "byteOffset": 99264,
      "componentType": 5126,
      "count": 1380,
      "max": [
        0.9844970703125,
        0.9937744140625
      ],
      "min": [
        0.012884686700999737,
        0.012884686700999737
      ],
      "type": "VEC2"
    },
    {
      "bufferView": 1,
      "byteOffset": 110304,
      "componentType": 5126,
      "count": 1380,
      "max": [
        0.9844970703125,
        0.9937744140625
      ],
      "min": [
        0.012884686700999737,
        0.012884686700999737
      ],
      "type": "VEC2"
    },
    {
      "bufferView": 1,
      "byteOffset": 121344,
      "componentType": 5126,
      "count": 1380,
      "max": [
        0.9844970703125,
        0.9937744140625
      ],
      "min": [
        0.012884686700999737,
        0.012884686700999737
      ],
      "type": "VEC2"
    },
    {
      "bufferView": 0,
      "byteOffset": 36900,
      "componentType": 5125,
      "count": 3075,
      "max": [
        1379
      ],
      "min": [
        0
      ],
      "type": "SCALAR"
    },
    {
      "bufferView": 2,
      "byteOffset": 132384,
      "componentType": 5126,
      "count": 465,
      "max": [
        0.016635097563266754,
        0.27961248159408569,
        0.22373563051223755
      ],
      "min": [
        -0.058582261204719543,
        -0.037454500794410706,
        -0.16076306998729706
      ],
      "type": "VEC3"
    },
    {
      "bufferView": 2,
      "byteOffset": 137964,
      "componentType": 5126,
      "count": 465,
      "max": [
        1,
        1,
        1
      ],
      "min": [
        -1,
        -1,
        -1
      ],
      "type": "VEC3"
    },
    {
      "bufferView": 3,
      "byteOffset": 88256,
      "componentType": 5126,
      "count": 465,
      "max": [
        0.99996906518936157,
        0.99999529123306274,
        1,
        1
      ],
      "min": [
        -0.99991464614868164,
        -1,
        -1,
        -1
      ],
      "type": "VEC4"
    },
    {
      "bufferView": 1,
      "byteOffset": 132384,
      "componentType": 5126,
      "count": 465,
      "max": [
        0.84072756767272949,
        0.98711532354354858
      ],
      "min": [
        0.012884686700999737,
        0.012884686700999737
      ],
      "type": "VEC2"
    },
    {
      "bufferView": 1,
      "byteOffset": 136104,
      "componentType": 5126,
      "count": 465,
      "max": [
        0.84072756767272949,
        0.98711532354354858
      ],
      "min": [
        0.012884686700999737,
        0.012884686700999737
      ],
      "type": "VEC2"
    },
    {
      "bufferView": 1,
      "byteOffset": 139824,
      "componentType": 5126,
      "count": 465,
      "max": [
        0.84072756767272949,
        0.98711532354354858
      ],
      "min": [
        0.012884686700999737,
        0.012884686700999737
      ],
      "type": "VEC2"
    },
    {
      "bufferView": 0,
      "byteOffset": 49200,
      "componentType": 5125,
      "count": 1275,
      "max": [
        464
      ],
      "min": [
        0
      ],
      "type": "SCALAR"
    },
    {
      "bufferView": 2,
      "byteOffset": 143544,
      "componentType": 5126,
      "count": 1193,
      "max": [
        0.0088687241077423096,
        0.2586536705493927,
        0.21360248327255249
      ],
      "min": [
        -0.058811616152524948,
        9.5963725470937788e-05,
        -0.16074700653553009
      ],
      "type": "VEC3"
    },
    {
      "bufferView": 2,
      "byteOffset": 157860,
      "componentType": 5126,
      "count": 1193,
      "max": [
        0.99898672103881836,
        1,
        0.99998003244400024
      ],
      "min": [
        -0.99903666973114014,
        -1,
        -0.99998015165328979
      ],
      "type": "VEC3"
    },
    {
      "bufferView": 3,
      "byteOffset": 95696,
      "componentType": 5126,
      "count": 1193,
      "max": [
        0.99999630451202393,
        0.99980801343917847,
        0.99838161468505859,
        1
      ],
      "min": [
        -0.99997967481613159,
        -0.99958264827728271,
        -0.99945056438446045,
        -1
      ],
      "type": "VEC4"
    },
    {
      "bufferView": 1,
      "byteOffset": 143544,
      "componentType": 5126,
      "count": 1193,
      "max": [
        0.9844970703125,
        0.9937744140625
      ],
      "min": [
        0.7542724609375,
        0.0140380859375
      ],
      "type": "VEC2"
    },
    {
      "bufferView": 1,
      "byteOffset": 153088,
      "componentType": 5126,
      "count": 1193,
      "max": [
        0.9844970703125,
        0.9937744140625
      ],
      "min": [
        0.7542724609375,
        0.0140380859375
      ],
      "type": "VEC2"
    },
    {
      "bufferView": 1,
      "byteOffset": 162632,
      "componentType": 5126,
      "count": 1193,
      "max": [
        0.9844970703125,
        0.9937744140625
      ],
      "min": [
        0.7542724609375,
        0.0140380859375
      ],
      "type": "VEC2"
    },
    {
      "bufferView": 0,
      "byteOffset": 54300,
      "componentType": 5125,
      "count": 1800,
      "max": [
        1192
      ],
      "min": [
        0
      ],
      "type": "SCALAR"
    }
  ],
  "asset": {
    "extras": {
      "author": "janexx (https://sketchfab.com/janexx)",
      "license": "CC-BY-4.0 (http://creativecommons.org/licenses/by/4.0/)",
      "source": "https://sketchfab.com/3d-models/several-folders-1a493b49ef954985ab8057ca66c387d5",
      "title": "Several Folders"
    },
    "generator": "Sketchfab-9.62.2",
    "version": "2.0"
  },
  "bufferViews": [
    {
      "buffer": 0,
      "byteLength": 61500,
      "byteOffset": 0,
      "name": "floatBufferViews",
      "target": 34963
    },
    {
      "buffer": 0,
      "byteLength": 172176,
      "byteOffset": 61500,
      "byteStride": 8,
      "name": "floatBufferViews",
      "target": 34962
    },
    {
      "buffer": 0,
      "byteLength": 172176,
      "byteOffset": 233676,
      "byteStride": 12,
      "name": "floatBufferViews",
      "target": 34962
    },
    {
      "buffer": 0,
      "byteLength": 114784,
      "byteOffset": 405852,
      "byteStride": 16,
      "name": "floatBufferViews",
      "target": 34962
    }
  ],
  "buffers": [
    {
      "byteLength": 520636,
      "uri": "scene.bin"
    }
  ],
  "images": [
    {
      "uri": "textures/Folder_nolabel_baseColor.png"
    },
    {
      "uri": "textures/Folder_nolabel_normal.png"
    },
    {
      "uri": "textures/Folder_Bills_baseColor.png"
    },
    {
      "uri": "textures/Folder_TaxRecords_baseColor.png"
    },
    {
      "uri": "textures/Folder_House_baseColor.png"
    },
    {
      "uri": "textures/Folder_Work_baseColor.png"
    }
  ],
  "materials": [
    {
      "doubleSided": true,
      "emissiveFactor": [
        0,
        0,
        0
      ],
      "name": "Folder_nolabel",
      "normalTexture": {
        "index": 1,
        "scale": 1,
        "texCoord": 1
      },
      "pbrMetallicRoughness": {
        "baseColorFactor": [
          1,
          1,
          1,
          1
        ],
        "baseColorTexture": {
          "index": 0,
          "texCoord": 0
        },
        "metallicFactor": 0,
        "roughnessFactor": 0.81026334038989722
      }
    },
    {
      "doubleSided": true,
      "emissiveFactor": [
        0,
        0,
        0
      ],
      "name": "Folder_Bills",
      "normalTexture": {
        "index": 1,
        "scale": 1,
        "texCoord": 1
      },
      "pbrMetallicRoughness": {
        "baseColorFactor": [
          1,
          1,
          1,
          1
        ],
        "baseColorTexture": {
          "index": 2,
          "texCoord": 0
        },
        "metallicFactor": 0,
        "roughnessFactor": 0.81026334038989722
      }
    },
    {
      "doubleSided": true,
      "emissiveFactor": [
        0,
        0,
        0
      ],
      "name": "Folder_TaxRecords",
      "normalTexture": {
        "index": 1,
        "scale": 1,
        "texCoord": 1
      },
      "pbrMetallicRoughness": {
        "baseColorFactor": [
          1,
          1,
          1,
          1
        ],
        "baseColorTexture": {
          "index": 3,
          "texCoord": 0
        },
        "metallicFactor": 0,
        "roughnessFactor": 0.81026334038989722
      }
    },
    {
      "doubleSided": true,
      "emissiveFactor": [
        0,
        0,
        0
      ],
      "name": "Folder_House",
      "normalTexture": {
        "index": 1,
        "scale": 1,
        "texCoord": 1
      },
      "pbrMetallicRoughness": {
        "baseColorFactor": [
          1,
          1,
          1,
          1
        ],
        "baseColorTexture": {
          "index": 4,
          "texCoord": 0
        },
        "metallicFactor": 0,
        "roughnessFactor": 0.81026334038989722
      }
    },
    {
      "doubleSided": true,
      "emissiveFactor": [
        0,
        0,
        0
      ],
      "name": "Folder_Work",
      "normalTexture": {
        "index": 1,
        "scale": 1,
        "texCoord": 1
      },
      "pbrMetallicRoughness": {
        "baseColorFactor": [
          1,
          1,
          1,
          1
        ],
        "baseColorTexture": {
          "index": 5,
          "texCoord": 0
        },
        "metallicFactor": 0,
        "roughnessFactor": 0.81026334038989722
      }
    }
  ],
  "meshes": [
    {
      "name": "folder_LP_nolabel_Folder_nolabel_0",
      "primitives": [
        {
          "attributes": {
            "NORMAL": 1,
            "POSITION": 0,
            "TANGENT": 2,
            "TEXCOORD_0": 3,
            "TEXCOORD_1": 4,
            "TEXCOORD_2": 5
          },
          "indices": 6,
          "material": 0,
          "mode": 4
        }
      ]
    },
    {
      "name": "folder_LP_Bills_Folder_Bills_0",
      "primitives": [
        {
          "attributes": {
            "NORMAL": 8,
            "POSITION": 7,
            "TANGENT": 9,
            "TEXCOORD_0": 10,
            "TEXCOORD_1": 11,
            "TEXCOORD_2": 12
          },
          "indices": 13,
          "material": 1,
          "mode": 4
        }
      ]
    },
    {
      "name": "folder_LP_TaxRecords_Folder_TaxRecords_0",
      "primitives": [
        {
          "attributes": {
            "NORMAL": 15,
            "POSITION": 14,
            "TANGENT": 16,
            "TEXCOORD_0": 17,
            "TEXCOORD_1": 18,
            "TEXCOORD_2": 19
          },
          "indices": 20,
          "material": 2,
          "mode": 4
        }
      ]
    },
    {
      "name": "folder_LP_House_Folder_House_0",
      "primitives": [
        {
          "attributes": {
            "NORMAL": 22,
            "POSITION": 21,
            "TANGENT": 23,
            "TEXCOORD_0": 24,
            "TEXCOORD_1": 25,
            "TEXCOORD_2": 26
          },
          "indices": 27,
          "material": 3,
          "mode": 4
        }
      ]
    },
    {
      "name": "folder_LP_Work_Folder_Work_0",
      "primitives": [
        {
          "attributes": {
            "NORMAL": 29,
            "POSITION": 28,
            "TANGENT": 30,
            "TEXCOORD_0": 31,
            "TEXCOORD_1": 32,
            "TEXCOORD_2": 33
          },
          "indices": 34,
          "material": 4,
          "mode": 4
        }
      ]
    },
    {
      "name": "folder_LP_Work_Folder_nolabel_0",
      "primitives": [
        {
          "attributes": {
            "NORMAL": 36,
            "POSITION": 35,
            "TANGENT": 37,
            "TEXCOORD_0": 38,
            "TEXCOORD_1": 39,
            "TEXCOORD_2": 40
          },
          "indices": 41,
          "material": 0,
          "mode": 4
        }
      ]
    }
  ],
  "nodes": [
    {
      "children": [
        1
      ],
      "name": "RootNode (gltf orientation matrix)",
      "rotation": [
        -0.70710678118654746,
        -0,
        -0,
        0.70710678118654757
      ]
    },
    {
      "children": [
        2
      ],
      "name": "RootNode (model correction matrix)"
    },
    {
      "children": [
        3
      ],
      "matrix": [
        1,
        0,
        0,
        0,
        0,
        0,
        1,
        0,
        0,
        -1,
        0,
        0,
        0,
        0,
        0,
        1
      ],
      "name": "Props_Folders.fbx"
    },
    {
      "children": [
        4,
        6,
        8,
        10,
        12
      ],
      "name": "RootNode"
    },
    {
      "children": [
        5
      ],
      "matrix": [
        100,
        0,
        0,
        0,
        0,
        -4.3711390063094768e-06,
        -99.999999999999901,
        0,
        0,
        99.999999999999901,
        -4.3711390063094768e-06,
        0,
        409.824951171875,
        16.107624053955078,
        26.504936218261719,
        1
      ],
      "name": "folder_LP_nolabel"
    },
    {
      "mesh": 0,
      "name": "folder_LP_nolabel_Folder_nolabel_0"
    },
    {
      "children": [
        7
      ],
      "matrix": [
        100,
        0,
        0,
        0,
        0,
        -4.3711390063094768e-06,
        -99.999999999999901,
        0,
        0,
        99.999999999999901,
        -4.3711390063094768e-06,
        0,
        417.3670654296875,
        16.107624053955078,
        26.504936218261719,
        1
      ],
      "name": "folder_LP_Bills"
    },
    {
      "mesh": 1,
      "name": "folder_LP_Bills_Folder_Bills_0"
    },
    {
      "children": [
        9
      ],
      "matrix": [
        100,
        0,
        0,
        0,
        0,
        -4.3711390063094768e-06,
        -99.999999999999901,
        0,
        0,
        99.999999999999901,
        -4.3711390063094768e-06,
        0,
        424.95626831054688,
        16.107624053955078,
        26.504936218261719,
        1
      ],
      "name": "folder_LP_TaxRecords"
    },
    {
      "mesh": 2,
      "name": "folder_LP_TaxRecords_Folder_TaxRecords_0"
    },
    {
      "children": [
        11
      ],
      "matrix": [
        100,
        0,
        0,
        0,
        0,
        -4.3711390063094768e-06,
        -99.999999999999901,
        0,
        0,
        99.999999999999901,
        -4.3711390063094768e-06,
        0,
        432.66629028320312,
        16.107624053955078,
        26.504936218261719,
        1
      ],
      "name": "folder_LP_House"
    },
    {
      "mesh": 3,
      "name": "folder_LP_House_Folder_House_0"
    },
    {
      "children": [
        13,
        14
      ],
      "matrix": [
        98.872100100639258,
        14.976909617446651,
        2.1013917717027653e-06,
        0,
        9.4696495644974732e-07,
        7.7793594344122141e-06,
        -99.999999999999702,
        0,
        -14.976909617446768,
        98.872100100638974,
        7.5497899709731087e-06,
        0,
        442.96578979492188,
        16.586906433105469,
        26.504936218261719,
        1
      ],
      "name": "folder_LP_Work"
    },
    {
      "mesh": 4,
      "name": "folder_LP_Work_Folder_Work_0"
    },
    {
      "mesh": 5,
      "name": "folder_LP_Work_Folder_nolabel_0"
    }
  ],
  "samplers": [
    {
      "magFilter": 9729,
      "minFilter": 9987,
      "wrapS": 10497,
      "wrapT": 10497
    }
  ],
  "scene": 0,
  "scenes": [
    {
      "name": "OSG_Scene",
      "nodes": [
        0
      ]
    }
  ],
  "textures": [
    {
      "sampler": 0,
      "source": 0
    },
    {
      "sampler": 0,
      "source": 1
    },
    {
      "sampler": 0,
      "source": 2
    },
    {
      "sampler": 0,
      "source": 3
    },
    {
      "sampler": 0,
      "source": 4
    },
    {
      "sampler": 0,
      "source": 5
    }
  ]
}

